<mxfile host="app.diagrams.net" agent="Mozilla/5.0 (Macintosh; Intel Mac OS X 10_15_7) AppleWebKit/605.1.15 (KHTML, like Gecko) Version/18.3 Safari/605.1.15" version="26.0.11">
  <diagram name="Page-1" id="2YBvvXClWsGukQMizWep">
    <mxGraphModel dx="1194" dy="647" grid="0" gridSize="10" guides="1" tooltips="1" connect="1" arrows="1" fold="1" page="1" pageScale="1" pageWidth="850" pageHeight="1100" math="0" shadow="0">
      <root>
        <mxCell id="0" />
        <mxCell id="1" parent="0" />
        <mxCell id="aM9ryv3xv72pqoxQDRHE-1" value="Player" style="shape=umlLifeline;perimeter=lifelinePerimeter;whiteSpace=wrap;html=1;container=0;dropTarget=0;collapsible=0;recursiveResize=0;outlineConnect=0;portConstraint=eastwest;newEdgeStyle={&quot;edgeStyle&quot;:&quot;elbowEdgeStyle&quot;,&quot;elbow&quot;:&quot;vertical&quot;,&quot;curved&quot;:0,&quot;rounded&quot;:0};" parent="1" vertex="1">
          <mxGeometry x="61" y="16" width="100" height="457" as="geometry" />
        </mxCell>
        <mxCell id="aM9ryv3xv72pqoxQDRHE-2" value="" style="html=1;points=[];perimeter=orthogonalPerimeter;outlineConnect=0;targetShapes=umlLifeline;portConstraint=eastwest;newEdgeStyle={&quot;edgeStyle&quot;:&quot;elbowEdgeStyle&quot;,&quot;elbow&quot;:&quot;vertical&quot;,&quot;curved&quot;:0,&quot;rounded&quot;:0};" parent="aM9ryv3xv72pqoxQDRHE-1" vertex="1">
          <mxGeometry x="45" y="70" width="10" height="377" as="geometry" />
        </mxCell>
        <mxCell id="aM9ryv3xv72pqoxQDRHE-5" value="Enemy: Sprite 1" style="shape=umlLifeline;perimeter=lifelinePerimeter;whiteSpace=wrap;html=1;container=0;dropTarget=0;collapsible=0;recursiveResize=0;outlineConnect=0;portConstraint=eastwest;newEdgeStyle={&quot;edgeStyle&quot;:&quot;elbowEdgeStyle&quot;,&quot;elbow&quot;:&quot;vertical&quot;,&quot;curved&quot;:0,&quot;rounded&quot;:0};" parent="1" vertex="1">
          <mxGeometry x="220" y="40" width="100" height="300" as="geometry" />
        </mxCell>
        <mxCell id="aM9ryv3xv72pqoxQDRHE-6" value="" style="html=1;points=[];perimeter=orthogonalPerimeter;outlineConnect=0;targetShapes=umlLifeline;portConstraint=eastwest;newEdgeStyle={&quot;edgeStyle&quot;:&quot;elbowEdgeStyle&quot;,&quot;elbow&quot;:&quot;vertical&quot;,&quot;curved&quot;:0,&quot;rounded&quot;:0};" parent="aM9ryv3xv72pqoxQDRHE-5" vertex="1">
          <mxGeometry x="45" y="80" width="10" height="87" as="geometry" />
        </mxCell>
        <mxCell id="aM9ryv3xv72pqoxQDRHE-7" value="Battles" style="html=1;verticalAlign=bottom;endArrow=block;edgeStyle=elbowEdgeStyle;elbow=vertical;curved=0;rounded=0;" parent="1" source="aM9ryv3xv72pqoxQDRHE-2" target="aM9ryv3xv72pqoxQDRHE-6" edge="1">
          <mxGeometry x="-0.0045" relative="1" as="geometry">
            <mxPoint x="195" y="130" as="sourcePoint" />
            <Array as="points">
              <mxPoint x="180" y="120" />
            </Array>
            <mxPoint as="offset" />
          </mxGeometry>
        </mxCell>
        <mxCell id="aM9ryv3xv72pqoxQDRHE-9" value="Battles" style="html=1;verticalAlign=bottom;endArrow=block;edgeStyle=elbowEdgeStyle;elbow=vertical;curved=0;rounded=0;" parent="1" source="aM9ryv3xv72pqoxQDRHE-6" edge="1">
          <mxGeometry relative="1" as="geometry">
            <mxPoint x="175" y="160" as="sourcePoint" />
            <Array as="points">
              <mxPoint x="190" y="160" />
            </Array>
            <mxPoint x="116" y="160" as="targetPoint" />
          </mxGeometry>
        </mxCell>
        <mxCell id="pOHNztfmvKQ-Ok3p9Knd-2" value="Enemy: Sprite 2" style="shape=umlLifeline;perimeter=lifelinePerimeter;whiteSpace=wrap;html=1;container=0;dropTarget=0;collapsible=0;recursiveResize=0;outlineConnect=0;portConstraint=eastwest;newEdgeStyle={&quot;edgeStyle&quot;:&quot;elbowEdgeStyle&quot;,&quot;elbow&quot;:&quot;vertical&quot;,&quot;curved&quot;:0,&quot;rounded&quot;:0};" parent="1" vertex="1">
          <mxGeometry x="351" y="40" width="100" height="300" as="geometry" />
        </mxCell>
        <mxCell id="pOHNztfmvKQ-Ok3p9Knd-3" value="" style="html=1;points=[];perimeter=orthogonalPerimeter;outlineConnect=0;targetShapes=umlLifeline;portConstraint=eastwest;newEdgeStyle={&quot;edgeStyle&quot;:&quot;elbowEdgeStyle&quot;,&quot;elbow&quot;:&quot;vertical&quot;,&quot;curved&quot;:0,&quot;rounded&quot;:0};" parent="pOHNztfmvKQ-Ok3p9Knd-2" vertex="1">
          <mxGeometry x="45" y="152" width="10" height="133" as="geometry" />
        </mxCell>
        <mxCell id="pOHNztfmvKQ-Ok3p9Knd-4" value="Enemy: Sprite 3" style="shape=umlLifeline;perimeter=lifelinePerimeter;whiteSpace=wrap;html=1;container=0;dropTarget=0;collapsible=0;recursiveResize=0;outlineConnect=0;portConstraint=eastwest;newEdgeStyle={&quot;edgeStyle&quot;:&quot;elbowEdgeStyle&quot;,&quot;elbow&quot;:&quot;vertical&quot;,&quot;curved&quot;:0,&quot;rounded&quot;:0};" parent="1" vertex="1">
          <mxGeometry x="480" y="40" width="100" height="622" as="geometry" />
        </mxCell>
        <mxCell id="pOHNztfmvKQ-Ok3p9Knd-5" value="" style="html=1;points=[];perimeter=orthogonalPerimeter;outlineConnect=0;targetShapes=umlLifeline;portConstraint=eastwest;newEdgeStyle={&quot;edgeStyle&quot;:&quot;elbowEdgeStyle&quot;,&quot;elbow&quot;:&quot;vertical&quot;,&quot;curved&quot;:0,&quot;rounded&quot;:0};" parent="pOHNztfmvKQ-Ok3p9Knd-4" vertex="1">
          <mxGeometry x="45" y="234" width="10" height="138" as="geometry" />
        </mxCell>
        <mxCell id="pOHNztfmvKQ-Ok3p9Knd-8" value="" style="endArrow=classic;html=1;rounded=0;" parent="1" edge="1">
          <mxGeometry width="50" height="50" relative="1" as="geometry">
            <mxPoint x="274.40034482758614" y="156" as="sourcePoint" />
            <mxPoint x="274.40034482758614" y="131" as="targetPoint" />
            <Array as="points">
              <mxPoint x="381.59" y="156" />
              <mxPoint x="381.59" y="131" />
            </Array>
          </mxGeometry>
        </mxCell>
        <mxCell id="pOHNztfmvKQ-Ok3p9Knd-12" value="Calculate Health" style="text;html=1;align=center;verticalAlign=middle;whiteSpace=wrap;rounded=0;" parent="1" vertex="1">
          <mxGeometry x="275" y="105" width="106" height="30" as="geometry" />
        </mxCell>
        <mxCell id="pOHNztfmvKQ-Ok3p9Knd-19" value="Calculate Health" style="text;html=1;align=center;verticalAlign=middle;whiteSpace=wrap;rounded=0;" parent="1" vertex="1">
          <mxGeometry x="121" y="205" width="106" height="30" as="geometry" />
        </mxCell>
        <mxCell id="pOHNztfmvKQ-Ok3p9Knd-20" value="" style="endArrow=classic;html=1;rounded=0;" parent="1" edge="1">
          <mxGeometry width="50" height="50" relative="1" as="geometry">
            <mxPoint x="117" y="254" as="sourcePoint" />
            <mxPoint x="117" y="229" as="targetPoint" />
            <Array as="points">
              <mxPoint x="224" y="254" />
              <mxPoint x="224" y="229" />
            </Array>
          </mxGeometry>
        </mxCell>
        <mxCell id="pOHNztfmvKQ-Ok3p9Knd-23" value="" style="endArrow=classic;html=1;rounded=0;" parent="1" edge="1">
          <mxGeometry width="50" height="50" relative="1" as="geometry">
            <mxPoint x="406.0003448275861" y="238" as="sourcePoint" />
            <mxPoint x="406.0003448275861" y="213" as="targetPoint" />
            <Array as="points">
              <mxPoint x="513.1899999999999" y="238" />
              <mxPoint x="513.1899999999999" y="213" />
            </Array>
          </mxGeometry>
        </mxCell>
        <mxCell id="pOHNztfmvKQ-Ok3p9Knd-24" value="Calculate Health" style="text;html=1;align=center;verticalAlign=middle;whiteSpace=wrap;rounded=0;" parent="1" vertex="1">
          <mxGeometry x="406.6" y="187" width="106" height="30" as="geometry" />
        </mxCell>
        <mxCell id="pOHNztfmvKQ-Ok3p9Knd-25" value="" style="endArrow=classic;html=1;rounded=0;" parent="1" edge="1">
          <mxGeometry width="50" height="50" relative="1" as="geometry">
            <mxPoint x="535.0003448275861" y="331" as="sourcePoint" />
            <mxPoint x="535.0003448275861" y="306" as="targetPoint" />
            <Array as="points">
              <mxPoint x="642.1899999999999" y="331" />
              <mxPoint x="642.1899999999999" y="306" />
            </Array>
          </mxGeometry>
        </mxCell>
        <mxCell id="pOHNztfmvKQ-Ok3p9Knd-26" value="Calculate Health" style="text;html=1;align=center;verticalAlign=middle;whiteSpace=wrap;rounded=0;" parent="1" vertex="1">
          <mxGeometry x="535.6" y="280" width="106" height="30" as="geometry" />
        </mxCell>
        <mxCell id="pOHNztfmvKQ-Ok3p9Knd-27" value="Battles" style="html=1;verticalAlign=bottom;endArrow=block;edgeStyle=elbowEdgeStyle;elbow=vertical;curved=0;rounded=0;" parent="1" target="pOHNztfmvKQ-Ok3p9Knd-2" edge="1">
          <mxGeometry x="-0.0045" relative="1" as="geometry">
            <mxPoint x="116" y="275.65999999999997" as="sourcePoint" />
            <Array as="points">
              <mxPoint x="180" y="275.65999999999997" />
            </Array>
            <mxPoint x="265" y="275.65999999999997" as="targetPoint" />
            <mxPoint as="offset" />
          </mxGeometry>
        </mxCell>
        <mxCell id="pOHNztfmvKQ-Ok3p9Knd-28" value="Battles" style="html=1;verticalAlign=bottom;endArrow=block;edgeStyle=elbowEdgeStyle;elbow=vertical;curved=0;rounded=0;" parent="1" source="pOHNztfmvKQ-Ok3p9Knd-2" edge="1">
          <mxGeometry relative="1" as="geometry">
            <mxPoint x="265" y="301" as="sourcePoint" />
            <Array as="points">
              <mxPoint x="190" y="301" />
            </Array>
            <mxPoint x="116" y="301" as="targetPoint" />
          </mxGeometry>
        </mxCell>
        <mxCell id="pOHNztfmvKQ-Ok3p9Knd-29" value="Battles" style="html=1;verticalAlign=bottom;endArrow=block;edgeStyle=elbowEdgeStyle;elbow=vertical;curved=0;rounded=0;" parent="1" target="pOHNztfmvKQ-Ok3p9Knd-4" edge="1">
          <mxGeometry x="-0.0045" relative="1" as="geometry">
            <mxPoint x="113" y="350.65999999999997" as="sourcePoint" />
            <Array as="points">
              <mxPoint x="177" y="350.65999999999997" />
            </Array>
            <mxPoint x="398" y="351" as="targetPoint" />
            <mxPoint as="offset" />
          </mxGeometry>
        </mxCell>
        <mxCell id="pOHNztfmvKQ-Ok3p9Knd-30" value="Battles" style="html=1;verticalAlign=bottom;endArrow=block;edgeStyle=elbowEdgeStyle;elbow=vertical;curved=0;rounded=0;" parent="1" source="pOHNztfmvKQ-Ok3p9Knd-4" edge="1">
          <mxGeometry relative="1" as="geometry">
            <mxPoint x="401" y="370" as="sourcePoint" />
            <Array as="points">
              <mxPoint x="190" y="370" />
            </Array>
            <mxPoint x="116" y="370" as="targetPoint" />
          </mxGeometry>
        </mxCell>
      </root>
    </mxGraphModel>
  </diagram>
</mxfile>
